<?xml version="1.0" encoding="utf-8"?>
<!-- Generator: Adobe Illustrator 18.1.1, SVG Export Plug-In . SVG Version: 6.00 Build 0)  -->
<svg version="1.1" id="Layer_1" xmlns="http://www.w3.org/2000/svg" xmlns:xlink="http://www.w3.org/1999/xlink" x="0px" y="0px"
	 viewBox="0 0 400 400" enable-background="new 0 0 400 400" xml:space="preserve">
<circle fill="#E80C7A" cx="200" cy="200" r="153.9"/>
<g>
	
		<rect x="284.1" y="156.8" transform="matrix(0.7071 -0.7071 0.7071 0.7071 -45.4641 257.1217)" fill="#EEEEEE" width="7" height="53.3"/>
	
		<rect x="283.9" y="189.4" transform="matrix(0.7071 0.7071 -0.7071 0.7071 237.168 -139.8771)" fill="#EEEEEE" width="7" height="53.9"/>
</g>
<path fill="none" stroke="#EEEEEE" stroke-width="7" stroke-miterlimit="10" d="M189,198.6c0,20.3,16.1,37.6,36.3,37.6
	c18.3,0,33.4-13.6,36.2-30.9c0.5-3.3,3.3-5.8,6.7-5.8l34.7,0.5"/>
<path fill="none" stroke="#EEEEEE" stroke-width="7" stroke-miterlimit="10" d="M230.3,163"/>
<path fill="none" stroke="#EEEEEE" stroke-width="7" stroke-miterlimit="10" d="M83.8,236.3c34.2,0,31.9-16.4,31.9-36.7
	s16.4-36.7,36.7-36.7s36.7,16.4,36.7,36.7"/>
<path fill="none" stroke="#EEEEEE" stroke-width="7" stroke-miterlimit="10" d="M194,199.7"/>
</svg>
