<?xml version="1.0" encoding="utf-8"?>
<!-- Generator: Adobe Illustrator 18.1.1, SVG Export Plug-In . SVG Version: 6.00 Build 0)  -->
<svg version="1.1" id="Laag_1" xmlns="http://www.w3.org/2000/svg" xmlns:xlink="http://www.w3.org/1999/xlink" x="0px" y="0px"
	 viewBox="0 0 100 100" enable-background="new 0 0 100 100" xml:space="preserve">
<path fill="#333333" d="M96.4,47.4c-0.1-0.3-0.3-0.5-0.5-0.7L76.9,19.1c-2.7-3.9-8-4.8-11.9-2.2v0c-3.4,2.4-4.6,6.8-2.9,10.5
	c-2.9-2.8-7.4-3.3-10.8-1c-3.1,2.1-4.3,5.9-3.3,9.4C45,33.7,41,33.5,38,35.6c-3.2,2.2-4.4,6.3-3.2,9.9L17.1,19.9
	c-2.7-3.9-8-4.8-11.9-2.2c-3.9,2.7-4.8,8-2.2,11.9l37.5,54.4c0.1,0.2,0.3,0.4,0.4,0.7c3.6,5.3,10.9,6.6,16.2,3L93,62.8
	C98,59.4,99.4,52.6,96.4,47.4z"/>
</svg>
