<?xml version="1.0" encoding="utf-8"?>
<!-- Generator: Adobe Illustrator 18.1.1, SVG Export Plug-In . SVG Version: 6.00 Build 0)  -->
<svg version="1.1" id="Laag_1" xmlns="http://www.w3.org/2000/svg" xmlns:xlink="http://www.w3.org/1999/xlink" x="0px" y="0px"
	 viewBox="0 0 100 100" enable-background="new 0 0 100 100" xml:space="preserve">
<g>
	<circle fill="#FFFFFF" stroke="#FFFFFF" stroke-miterlimit="10" cx="82.3" cy="82.6" r="16.8"/>
	<circle fill="#266F97" stroke="#FFFFFF" stroke-miterlimit="10" cx="82.3" cy="82.6" r="12.4"/>
	<circle fill="#FFFFFF" stroke="#FFFFFF" stroke-miterlimit="10" cx="17.6" cy="82.2" r="16.8"/>
	<circle fill="#266F97" stroke="#FFFFFF" stroke-miterlimit="10" cx="17.6" cy="82.2" r="12.4"/>
	<circle fill="#FFFFFF" stroke="#FFFFFF" stroke-miterlimit="10" cx="17.6" cy="17.8" r="16.8"/>
	<circle fill="#266F97" stroke="#FFFFFF" stroke-miterlimit="10" cx="17.6" cy="17.8" r="12.4"/>
	<circle fill="#FFFFFF" stroke="#FFFFFF" stroke-miterlimit="10" cx="82.4" cy="17.4" r="16.8"/>
	<circle fill="#266F97" stroke="#FFFFFF" stroke-miterlimit="10" cx="82.4" cy="17.4" r="12.4"/>
	<path fill="#266F97" d="M24.5,18.3c0,0,20.6-4.1,25.2-4.1S75,18.3,75,18.3c3.5,0,6.4,2.9,6.4,6.4c0,0,4.3,20.4,4.3,25.2
		s-4.3,25.2-4.3,25.2c0,3.5-2.9,6.4-6.4,6.4c0,0-20.7,4.3-25.2,4.3s-25.2-4.3-25.2-4.3c-3.5,0-6.4-2.9-6.4-6.4c0,0-4.1-21-4.1-25.2
		S18,24.7,18,24.7C18,21.2,20.9,18.3,24.5,18.3z"/>
	<path fill="#FFFFFF" stroke="#FFFFFF" stroke-miterlimit="10" d="M27,21.4c0,0,18.6-3.7,22.7-3.7s22.7,3.7,22.7,3.7
		c3.2,0,5.8,2.6,5.8,5.8c0,0,3.9,18.4,3.9,22.7s-3.9,22.7-3.9,22.7c0,3.2-2.6,5.8-5.8,5.8c0,0-18.6,3.9-22.7,3.9S27,78.5,27,78.5
		c-3.2,0-5.8-2.6-5.8-5.8c0,0-3.7-18.9-3.7-22.7s3.7-22.7,3.7-22.7C21.2,24,23.8,21.4,27,21.4z"/>
	<circle fill="#266F97" stroke="#FFFFFF" stroke-miterlimit="10" cx="49.8" cy="50" r="20.2"/>
	<circle fill="#FFFFFF" stroke="#FFFFFF" stroke-miterlimit="10" cx="49.8" cy="50" r="13.4"/>
	<circle fill="#FFFFFF" cx="17.6" cy="82.2" r="3.9"/>
	<circle fill="#FFFFFF" cx="82.4" cy="82.2" r="3.9"/>
	<circle fill="#FFFFFF" cx="82.4" cy="17.4" r="3.9"/>
	<circle fill="#FFFFFF" cx="17.5" cy="17.4" r="3.9"/>
</g>
</svg>
